<svg width="24" height="24" viewBox="0 0 24 24" fill="none" xmlns="http://www.w3.org/2000/svg">
<path d="M14.63 8.24316H17.373" stroke="#C8D2D9" stroke-width="1.5" stroke-linecap="round" stroke-linejoin="round"/>
<path fill-rule="evenodd" clip-rule="evenodd" d="M18.149 12.9931H13.627V12.7251C13.627 11.4131 14.69 10.3501 16.002 10.3501V10.3501C17.314 10.3501 18.377 11.4131 18.377 12.7251V12.7651C18.376 12.8911 18.275 12.9931 18.149 12.9931V12.9931Z" stroke="#C8D2D9" stroke-width="1.5" stroke-linecap="round" stroke-linejoin="round"/>
<path d="M13.626 12.9932V13.1242C13.626 14.4892 14.733 15.5952 16.098 15.5952C16.727 15.5952 17.356 15.3552 17.838 14.8782" stroke="#C8D2D9" stroke-width="1.5" stroke-linecap="round" stroke-linejoin="round"/>
<path fill-rule="evenodd" clip-rule="evenodd" d="M12 22C17.5228 22 22 17.5228 22 12C22 6.47715 17.5228 2 12 2C6.47715 2 2 6.47715 2 12C2 17.5228 6.47715 22 12 22Z" stroke="#C8D2D9" stroke-width="1.5" stroke-linecap="round" stroke-linejoin="round"/>
<path d="M6.12402 11.501V8.50098C6.12402 8.36298 6.23602 8.25098 6.37402 8.25098H8.69502C9.59202 8.25098 10.32 8.97898 10.32 9.87598V9.87598C10.32 10.773 9.59202 11.501 8.69502 11.501" stroke="#C8D2D9" stroke-width="1.5" stroke-linecap="round" stroke-linejoin="round"/>
<path fill-rule="evenodd" clip-rule="evenodd" d="M9.32202 11.501H6.12402V15.344C6.12402 15.482 6.23602 15.594 6.37402 15.594H9.32302C10.453 15.594 11.37 14.678 11.37 13.547V13.547C11.369 12.417 10.453 11.501 9.32202 11.501Z" stroke="#C8D2D9" stroke-width="1.5" stroke-linecap="round" stroke-linejoin="round"/>
</svg>
