<svg width="40" height="40" viewBox="0 0 40 40" fill="none" xmlns="http://www.w3.org/2000/svg">
<path d="M20.4941 27.2386H13.5606C13.1192 27.2386 12.7616 26.8808 12.7616 26.4396V13.5607C12.7616 13.1194 13.1192 12.7617 13.5606 12.7617H26.4395C26.8807 12.7617 27.2384 13.1194 27.2384 13.5607V26.4396C27.2384 26.8808 26.8806 27.2386 26.4395 27.2386H22.7504V21.6324H24.6322L24.9139 19.4475H22.7504V18.0526C22.7504 17.42 22.9261 16.989 23.8331 16.989L24.9901 16.9885V15.0343C24.79 15.0077 24.1033 14.9482 23.3042 14.9482C21.6361 14.9482 20.4941 15.9664 20.4941 17.8362V19.4475H18.6075V21.6324H20.4941V27.2386Z" fill="#ECF1FF"/>
</svg>
