<svg width="40" height="40" viewBox="0 0 40 40" fill="none" xmlns="http://www.w3.org/2000/svg">
<path d="M19.8633 12.1206C17.8464 12.1206 17.5936 12.1292 16.8015 12.1653C16.011 12.2013 15.4711 12.3269 14.9989 12.5105C14.5106 12.7002 14.0964 12.9542 13.6834 13.367C13.2707 13.7799 13.0166 14.194 12.8269 14.6824C12.6433 15.1547 12.5178 15.6946 12.4818 16.485C12.4455 17.2771 12.4371 17.53 12.4371 19.5468C12.4371 21.5637 12.4455 21.8165 12.4818 22.6087C12.5178 23.3991 12.6433 23.939 12.8269 24.4113C13.0166 24.8997 13.2707 25.3138 13.6834 25.7267C14.0964 26.1395 14.5106 26.3934 14.9989 26.5832C15.4711 26.7668 16.011 26.8923 16.8015 26.9283C17.5936 26.9645 17.8464 26.9731 19.8633 26.9731C21.8802 26.9731 22.133 26.9645 22.9251 26.9283C23.7156 26.8923 24.2553 26.7668 24.7277 26.5832C25.216 26.3934 25.6302 26.1395 26.0431 25.7267C26.4559 25.3138 26.7099 24.8997 26.8997 24.4113C27.0832 23.939 27.2087 23.3991 27.2448 22.6087C27.2809 21.8165 27.2895 21.5637 27.2895 19.5468C27.2895 17.53 27.2809 17.2771 27.2448 16.485C27.2087 15.6946 27.0832 15.1547 26.8997 14.6824C26.7099 14.194 26.4559 13.7799 26.0431 13.367C25.6302 12.9542 25.216 12.7002 24.7277 12.5105C24.2553 12.3269 23.7156 12.2013 22.9251 12.1653C22.133 12.1292 21.8802 12.1206 19.8633 12.1206Z" fill="#ECF1FF"/>
<path d="M16.0503 19.5513C16.0503 17.4451 17.7576 15.7378 19.8638 15.7378C21.9699 15.7378 23.6772 17.4451 23.6772 19.5513C23.6772 21.6574 21.9699 23.3647 19.8638 23.3647C17.7576 23.3647 16.0503 21.6574 16.0503 19.5513Z" fill="#0F0F11"/>
<path d="M19.8617 22.0245C18.4944 22.0245 17.3863 20.9163 17.3863 19.5491C17.3863 18.182 18.4944 17.0737 19.8617 17.0737C21.2287 17.0737 22.3371 18.182 22.3371 19.5491C22.3371 20.9163 21.2287 22.0245 19.8617 22.0245Z" fill="#ECF1FF"/>
<path d="M24.0887 16.7743C24.6623 16.7743 25.127 16.2703 25.127 15.6486C25.127 15.027 24.6623 14.5229 24.0887 14.5229C23.5153 14.5229 23.0503 15.027 23.0503 15.6486C23.0503 16.2703 23.5153 16.7743 24.0887 16.7743Z" fill="#0F0F11"/>
</svg>
