<svg width="40" height="40" viewBox="0 0 40 40" fill="none" xmlns="http://www.w3.org/2000/svg">
<path d="M15.6329 26.415H12.5899V16.9893H15.6329V26.415ZM23.9434 16.8975C26.1056 16.8975 27.8046 18.2527 27.8048 21.1719V26.4131H24.3546V21.5361C24.3546 20.2594 23.8148 19.3877 22.628 19.3877C21.7207 19.3878 21.2155 19.9753 20.9805 20.542C20.8925 20.7454 20.9063 21.0292 20.9063 21.3125V26.4131H17.4884C17.4886 26.3584 17.5323 17.7702 17.4884 16.9873H20.9063V18.4668C21.1084 17.82 22.2007 16.8975 23.9434 16.8975ZM14.0538 12.5381C15.1762 12.5381 15.8667 13.2417 15.8887 14.1719C15.8887 15.0851 15.1765 15.8084 14.0333 15.8086H14.0108C12.9096 15.8086 12.1955 15.0881 12.1954 14.1748C12.1954 13.2437 12.9305 12.5381 14.0538 12.5381Z" fill="#ECF1FF"/>
</svg>
