<svg width="40" height="40" viewBox="0 0 40 40" fill="none" xmlns="http://www.w3.org/2000/svg">
<path d="M27.6268 15.4723C27.0663 15.7106 26.4628 15.8717 25.8299 15.9436C26.4763 15.5735 26.9723 14.9865 27.2059 14.2872C26.6007 14.63 25.9319 14.8794 25.2175 15.013C24.648 14.4312 23.8342 14.0679 22.9335 14.0679C21.2065 14.0679 19.8053 15.4089 19.8053 17.0628C19.8053 17.2975 19.8321 17.5255 19.8859 17.7448C17.285 17.6197 14.9795 16.4286 13.4351 14.6146C13.1656 15.0585 13.0116 15.5735 13.0116 16.1219C13.0116 17.1604 13.564 18.0773 14.4038 18.6146C13.8917 18.6 13.4082 18.4638 12.9857 18.241V18.2779C12.9857 19.7294 14.0645 20.9403 15.497 21.2145C15.2347 21.2847 14.958 21.3198 14.6724 21.3198C14.471 21.3198 14.274 21.3019 14.0833 21.2667C14.4817 22.4561 15.6367 23.3224 17.0065 23.3455C15.9357 24.1494 14.5856 24.6283 13.12 24.6283C12.8675 24.6283 12.6177 24.6147 12.3733 24.5872C13.7583 25.4356 15.4039 25.9317 17.1704 25.9317C22.9272 25.9317 26.0743 21.3687 26.0743 17.4107C26.0743 17.2804 26.0716 17.1501 26.0662 17.0225C26.6777 16.6 27.2086 16.073 27.6268 15.4723Z" fill="#ECF1FF"/>
</svg>
