<svg width="40" height="40" viewBox="0 0 40 40" fill="none" xmlns="http://www.w3.org/2000/svg">
<path fill-rule="evenodd" clip-rule="evenodd" d="M28.3175 14.4988C28.8712 15.0567 29.0518 16.3236 29.0518 16.3236C29.0518 16.3236 29.2366 17.8116 29.2366 19.2991V20.6941C29.2366 22.1822 29.0518 23.6696 29.0518 23.6696C29.0518 23.6696 28.8712 24.9365 28.3175 25.4944C27.6845 26.1544 26.9827 26.2226 26.586 26.2611C26.5424 26.2653 26.5025 26.2692 26.4668 26.2734C23.8817 26.4596 20 26.4654 20 26.4654C20 26.4654 15.197 26.4217 13.7191 26.2804C13.6491 26.2673 13.5643 26.2572 13.4682 26.2457C13.0001 26.1899 12.2653 26.1022 11.6819 25.4944C11.1283 24.9365 10.9482 23.6696 10.9482 23.6696C10.9482 23.6696 10.7634 22.1822 10.7634 20.6941V19.2991C10.7634 17.8116 10.9482 16.3236 10.9482 16.3236C10.9482 16.3236 11.1283 15.0567 11.6819 14.4988C12.3163 13.8379 13.0187 13.7705 13.4155 13.7324C13.4585 13.7283 13.4979 13.7245 13.5333 13.7203C16.1183 13.5342 19.9959 13.5342 19.9959 13.5342H20.0041C20.0041 13.5342 23.8817 13.5342 26.4668 13.7203C26.5021 13.7245 26.5416 13.7283 26.5846 13.7324C26.981 13.7705 27.6838 13.8381 28.3175 14.4988ZM18.0379 17.7868L18.0385 22.9526L23.0291 20.3786L18.0379 17.7868Z" fill="#ECF1FF"/>
</svg>
